<svg width="20" height="21" viewBox="0 0 20 21" fill="none" xmlns="http://www.w3.org/2000/svg">
<path id="Vector" d="M11.5 0.884857C11.0439 0.632733 10.5266 0.5 10 0.5C9.47339 0.5 8.95606 0.632733 8.5 0.884857L1 5.03099C0.695969 5.19907 0.443498 5.44082 0.267962 5.73194C0.0924258 6.02305 8.91844e-06 6.35329 0 6.68945V19.5425C0 19.7964 0.105357 20.04 0.292893 20.2195C0.48043 20.3991 0.734784 20.5 1 20.5H7C7.26522 20.5 7.51957 20.3991 7.70711 20.2195C7.89464 20.04 8 19.7964 8 19.5425V13.7972H12V19.5425C12 19.7964 12.1054 20.04 12.2929 20.2195C12.4804 20.3991 12.7348 20.5 13 20.5H19C19.2652 20.5 19.5196 20.3991 19.7071 20.2195C19.8946 20.04 20 19.7964 20 19.5425V6.68945C20 6.35329 19.9076 6.02305 19.732 5.73194C19.5565 5.44082 19.304 5.19907 19 5.03099L11.5 0.884857Z" fill="white"/>
</svg>
