<svg width="28" height="28" viewBox="0 0 28 28" fill="none" xmlns="http://www.w3.org/2000/svg">
<path id="Vector" d="M1.4 28C1.0287 28 0.672601 27.8525 0.41005 27.59C0.1475 27.3274 0 26.9713 0 26.6V1.4C0 1.0287 0.1475 0.672601 0.41005 0.41005C0.672601 0.1475 1.0287 0 1.4 0C1.7713 0 2.1274 0.1475 2.38995 0.41005C2.6525 0.672601 2.8 1.0287 2.8 1.4V26.6C2.8 26.9713 2.6525 27.3274 2.38995 27.59C2.1274 27.8525 1.7713 28 1.4 28ZM18.9 0.1876C18.6872 0.0647259 18.4458 3.72759e-05 18.2 3.57151e-05C17.9543 3.41543e-05 17.7128 0.0647196 17.5 0.187591C17.2872 0.310463 17.1105 0.48719 16.9876 0.700012C16.8647 0.912834 16.8 1.15425 16.8 1.4V26.6C16.8 26.9713 16.9475 27.3274 17.2101 27.59C17.4726 27.8525 17.8287 28 18.2 28H26.6C26.9713 28 27.3274 27.8525 27.59 27.59C27.8525 27.3274 28 26.9713 28 26.6V6.2496C28 6.00385 27.9353 5.76244 27.8124 5.54962C27.6896 5.3368 27.5128 5.16007 27.3 5.0372L18.9 0.1876ZM9.8 0C9.4287 0 9.0726 0.1475 8.81005 0.41005C8.5475 0.672601 8.4 1.0287 8.4 1.4V26.6C8.4 26.9713 8.5475 27.3274 8.81005 27.59C9.0726 27.8525 9.4287 28 9.8 28C10.1713 28 10.5274 27.8525 10.7899 27.59C11.0525 27.3274 11.2 26.9713 11.2 26.6V1.4C11.2 1.0287 11.0525 0.672601 10.7899 0.41005C10.5274 0.1475 10.1713 0 9.8 0Z" fill="#B3B3B3"/>
</svg>
