<svg width="13" height="14" viewBox="0 0 13 14" fill="none" xmlns="http://www.w3.org/2000/svg">
<path id="Vector" d="M7.1609 1.1482C7.36635 0.942695 7.61028 0.779681 7.87874 0.668462C8.14721 0.557244 8.43495 0.5 8.72554 0.5C9.01612 0.5 9.30387 0.557244 9.57233 0.668462C9.84079 0.779681 10.0847 0.942695 10.2902 1.1482L12.3514 3.20869C12.557 3.41417 12.7201 3.65815 12.8314 3.9267C12.9427 4.19525 13 4.48309 13 4.77378C13 5.06448 12.9427 5.35232 12.8314 5.62087C12.7201 5.88942 12.557 6.1334 12.3514 6.33888L9.35961 9.33078L8.27205 13.3883L4.62298 9.73914L1.02598 13.3363C0.910328 13.444 0.757364 13.5027 0.599313 13.4999C0.441262 13.4971 0.290463 13.4331 0.178687 13.3213C0.0669107 13.2095 0.00288367 13.0587 9.50473e-05 12.9007C-0.00269358 12.7426 0.0559739 12.5896 0.163738 12.474L3.76074 8.87687L0.111678 5.22769L4.16827 4.1401L7.1609 1.1482Z" fill="#1ED760"/>
</svg>
