<svg width="22" height="23" viewBox="0 0 22 23" fill="none" xmlns="http://www.w3.org/2000/svg">
<path id="Vector" d="M9.407 0.921357C4.227 0.921357 0 5.06136 0 10.2004C0 15.3394 4.226 19.4794 9.407 19.4794C11.641 19.4794 13.697 18.7094 15.314 17.4214L19.667 21.7744C19.7592 21.8699 19.8696 21.9461 19.9916 21.9985C20.1136 22.0509 20.2448 22.0785 20.3776 22.0796C20.5104 22.0808 20.6421 22.0555 20.765 22.0052C20.8878 21.9549 20.9995 21.8806 21.0934 21.7868C21.1873 21.6929 21.2615 21.5812 21.3118 21.4583C21.3621 21.3354 21.3874 21.2037 21.3863 21.071C21.3851 20.9382 21.3575 20.807 21.3051 20.685C21.2527 20.5629 21.1765 20.4526 21.081 20.3604L16.737 16.0164C18.0819 14.3767 18.816 12.321 18.814 10.2004C18.814 5.06036 14.588 0.920357 9.407 0.920357V0.921357ZM2 10.2004C2 6.19436 5.302 2.92036 9.407 2.92036C13.512 2.92036 16.814 6.19436 16.814 10.2004C16.814 14.2064 13.512 17.4794 9.407 17.4794C5.302 17.4794 2 14.2074 2 10.2004Z" fill="#B3B3B3"/>
</svg>
